<svg width="24" height="24" viewBox="0 0 24 24" fill="none" xmlns="http://www.w3.org/2000/svg">
<g id="customer-rate 1" clip-path="url(#clip0_1_8116)">
<g id="Group">
<g id="Group_2">
<g id="Group_3">
<path id="Vector" d="M11.999 7.47282C13.7087 7.47282 15.0995 6.0819 15.0995 4.37228C15.0995 2.66265 13.7086 1.27173 11.999 1.27173C10.2893 1.27173 8.89844 2.66265 8.89844 4.37228C8.89844 6.0819 10.2893 7.47282 11.999 7.47282Z" fill="#020A13"/>
<path id="Vector_2" d="M6.99845 14.9407H16.9988C17.4122 14.9407 17.7473 14.6056 17.7473 14.1922C17.7473 11.0224 15.1684 8.4436 11.9987 8.4436C8.82888 8.4436 6.25 11.0224 6.25 14.1922C6.25 14.6056 6.58511 14.9407 6.99845 14.9407Z" fill="#020A13"/>
<path id="Vector_3" d="M15.0219 17.8136L13.3985 17.5777L12.6725 16.1067C12.3984 15.5512 11.6042 15.5515 11.3302 16.1067L10.6042 17.5777L8.98086 17.8136C8.36787 17.9027 8.12276 18.6581 8.56606 19.0902L9.7407 20.2352L9.46339 21.852C9.35867 22.4626 10.0014 22.9291 10.5493 22.641L12.0013 21.8777L13.4533 22.641C13.9969 22.9268 14.6448 22.4671 14.5393 21.852L14.262 20.2352L15.4366 19.0902C15.8802 18.6578 15.6345 17.9026 15.0219 17.8136Z" fill="#020A13"/>
<path id="Vector_4" d="M6.68201 17.8138L5.05863 17.5779L4.33263 16.1069C4.05851 15.5515 3.2643 15.5518 2.99032 16.1069L2.26437 17.5779L0.640992 17.8138C0.0280075 17.9029 -0.217055 18.6583 0.226195 19.0904L1.40084 20.2354L1.12352 21.8522C1.0188 22.4628 1.66151 22.9293 2.20948 22.6412L3.66148 21.8779L5.11348 22.6412C5.65699 22.927 6.30495 22.4673 6.19943 21.8522L5.92212 20.2354L7.0968 19.0904C7.54038 18.658 7.29462 17.9028 6.68201 17.8138Z" fill="#020A13"/>
<path id="Vector_5" d="M23.3597 17.8137L21.7364 17.5777L21.0104 16.1068C20.7856 15.6511 20.2893 15.6895 20.3393 15.6895C20.0544 15.6895 19.7942 15.8513 19.6681 16.1068L18.9421 17.5777L17.3187 17.8137C16.7057 17.9027 16.4607 18.6582 16.9039 19.0903L18.0787 20.2353L17.8014 21.8521C17.6966 22.4626 18.3393 22.9291 18.8873 22.6411L20.3393 21.8777L21.7913 22.6411C22.3348 22.9268 22.9828 22.4672 22.8773 21.8521L22.5999 20.2353L23.7746 19.0903C24.2181 18.6579 23.9724 17.9027 23.3597 17.8137Z" fill="#020A13"/>
</g>
</g>
</g>
</g>
<defs>
<clipPath id="clip0_1_8116">
<rect width="24" height="24" fill="white"/>
</clipPath>
</defs>
</svg>
